<svg width="26" height="21" viewBox="0 0 26 21" fill="none" xmlns="http://www.w3.org/2000/svg">
<path d="M26 1.3125V6.5625L13 11.8125L0 6.5625V1.3125C0 0.964403 0.136964 0.630564 0.380761 0.384423C0.624558 0.138281 0.955218 0 1.3 0H24.7C25.0448 0 25.3754 0.138281 25.6192 0.384423C25.863 0.630564 26 0.964403 26 1.3125ZM0 9.38963V19.6875C0 20.0356 0.136964 20.3694 0.380761 20.6156C0.624558 20.8617 0.955218 21 1.3 21H24.7C25.0448 21 25.3754 20.8617 25.6192 20.6156C25.863 20.3694 26 20.0356 26 19.6875V9.38963L13 14.6396L0 9.38963Z" fill="#404452"/>
</svg>
