<svg width="227" height="274" viewBox="0 0 227 274" fill="none" xmlns="http://www.w3.org/2000/svg">
<path d="M167.292 161.216L137.093 129.949L136.636 130.406L136.33 130.711C100.701 161.338 66.8821 152.929 54.4261 144.896H54.1211C58.1477 164.663 70.5426 170.316 76.2368 170.672C76.2368 170.723 76.2063 170.855 76.0843 170.977C65.1027 171.709 58.4934 167.113 56.5614 164.724H56.2564C60.405 185.833 78.2196 202.295 86.6083 207.888C86.71 207.938 86.9438 208.04 87.0659 208.04C93.0447 207.918 97.7933 206.261 99.4202 205.447L99.2676 205.6C97.4374 208.284 94.5394 210.684 93.3193 211.548C93.2176 211.548 92.9837 211.579 92.8617 211.701C103.233 218.106 113.605 220.699 113.757 220.699C116.076 219.479 119.401 217.039 120.773 215.971C120.875 215.92 121.078 215.849 121.078 215.971C120.346 218.167 117.926 220.343 116.808 221.157H117.113C141.882 214.812 160.887 178.552 167.292 161.216Z" fill="#24A9E1"/>
<path d="M124.433 143.767C114.306 157.677 91.3362 157.901 81.1172 156.274C103.324 157.25 119.146 148.241 124.281 143.615L124.433 143.767Z" fill="white"/>
<path d="M175.834 77.2676C154.786 61.3036 98.8935 38.8559 50.9186 84.5886C-9.78515 142.455 27.8878 204.319 49.5459 227.044C71.1896 249.755 123.907 271.399 174.665 235.809C174.699 235.785 174.732 235.762 174.767 235.738C174.733 235.762 174.699 235.786 174.665 235.809C173.501 236.639 172.726 237.626 172.479 238.026C157.43 251.295 115.253 272.984 66.9335 253.583C18.6145 234.182 3.38266 185.914 1.8066 164.205C-0.379595 144.174 6.38214 96.9125 50.9186 68.1163C95.4551 39.3201 140.246 53.2708 157.074 63.8457L169.123 71.7768L175.834 77.2676Z" fill="#8DC641" stroke="#8DC73F"/>
<path d="M68.154 76.1083C48.972 90.3617 14.9384 132.39 40.8777 186.453C73.3018 254.031 139.148 236.66 164.362 223.582C189.558 210.514 221.661 170.188 203.518 117.125C203.506 117.09 203.493 117.055 203.482 117.019C203.494 117.054 203.506 117.09 203.518 117.125C203.946 118.345 204.608 119.268 204.894 119.583C212.635 136.001 220.857 178.104 191.813 215.176C162.77 252.248 116.973 253.3 97.7056 249.192C79.7423 246.038 40.3644 228.243 26.559 182.297C12.7536 136.352 38.3244 100.964 51.7584 89.016L61.6896 80.5518L68.154 76.1083Z" fill="#0E74BC"/>
<path d="M110.708 3.59964C80.9354 2.01341 58.9519 18.0892 51.6816 26.3254C53.7559 22.1768 61.9006 16.1573 65.7137 13.6661C65.8154 13.6152 66.0492 13.483 66.1712 13.361C79.5932 3.72163 97.6925 0.600013 105.064 0.24413C123.57 -1.53529 165.311 5.61291 184.223 48.4411C203.136 91.2693 182.139 126.787 169.276 139.192C169.174 139.243 168.88 139.405 168.514 139.649C166.683 135.379 162.158 131.871 160.125 130.651L160.582 130.193C183.918 108.535 186.054 67.2013 175.987 48.4411C165.921 29.6809 147.923 5.58242 110.708 3.59964Z" fill="#80CC28"/>
<path d="M167.598 158.867L138.772 128.82L138.619 128.667L138.772 128.515C148.899 124.854 158.142 130.752 161.497 134.158L161.802 134.463C170.588 141.418 169.327 153.63 167.598 158.867Z" fill="#80CC28"/>
<path d="M162.407 137.881C167.836 141.961 167.672 149.719 166.968 153.742C166.816 143.218 164.223 141.998 162.346 137.94L162.407 137.881Z" fill="white"/>
</svg>
