<svg width="254" height="55" viewBox="0 0 254 55" fill="none" xmlns="http://www.w3.org/2000/svg">
<path d="M240.46 31.8792C239.213 31.8792 238.246 30.8504 238.246 29.6345V14.7007C238.246 13.3913 239.181 12.3624 240.46 12.3624C241.489 12.3624 242.361 13.0795 242.642 14.0148L242.673 14.5136C243.764 13.2354 245.354 12.3624 247.381 12.3624C250.779 12.3624 253.866 15.1995 253.866 19.7825C253.866 24.1785 250.966 27.1403 247.381 27.1403C245.354 27.1403 243.764 26.2674 242.673 24.9579V29.6345C242.673 30.8504 241.707 31.8792 240.46 31.8792ZM245.884 23.5861C248.098 23.5861 249.407 22.0273 249.407 19.7825C249.407 17.6313 248.067 16.0413 245.884 16.0413C244.544 16.0413 243.297 16.7584 242.673 18.1613V21.5285C243.297 22.8379 244.544 23.5861 245.884 23.5861Z" fill="#2678D1"/>
<path d="M230.268 27.1715C225.685 27.1715 222.193 24.3032 222.193 19.8449C222.193 15.7919 225.093 12.3624 229.426 12.3624C233.791 12.3624 236.566 15.2307 236.628 19.0655C236.628 20.219 235.942 20.8737 234.758 20.8737H226.683C226.808 22.5261 228.429 23.6797 230.673 23.6797C231.546 23.6797 232.669 23.555 233.791 23.212C234.82 22.9314 235.818 23.7108 235.818 24.7709C235.818 25.4256 235.412 26.0179 234.851 26.2674C232.918 27.1091 231.11 27.1715 230.268 27.1715ZM226.683 18.099H232.295C232.108 16.7584 231.016 15.8231 229.52 15.8231C228.086 15.8231 226.932 16.7584 226.683 18.099Z" fill="#2678D1"/>
<path d="M214.776 27.1715C210.193 27.1715 206.701 24.3032 206.701 19.8449C206.701 15.7919 209.601 12.3624 213.934 12.3624C218.299 12.3624 221.074 15.2307 221.136 19.0655C221.136 20.219 220.45 20.8737 219.265 20.8737H211.191C211.315 22.5261 212.937 23.6797 215.181 23.6797C216.054 23.6797 217.177 23.555 218.299 23.212C219.328 22.9314 220.326 23.7108 220.326 24.7709C220.326 25.4256 219.92 26.0179 219.359 26.2674C217.426 27.1091 215.618 27.1715 214.776 27.1715ZM211.191 18.099H216.803C216.615 16.7584 215.524 15.8231 214.028 15.8231C212.594 15.8231 211.44 16.7584 211.191 18.099Z" fill="#2678D1"/>
<path d="M191.319 27.2027C190.352 27.2027 189.51 26.5791 189.198 25.675L185.644 14.8878C185.613 14.7007 185.551 14.4825 185.551 14.2642C185.551 13.2042 186.393 12.3624 187.453 12.3624C188.294 12.3624 189.011 12.9236 189.23 13.703L191.35 20.9984L193.22 14.2954C193.532 13.2042 194.561 12.3624 195.777 12.3624C196.993 12.3624 197.99 13.1419 198.302 14.2642L200.235 20.9984L202.293 13.7342C202.511 12.986 203.228 12.3624 204.101 12.3624C205.161 12.3624 206.003 13.2042 206.003 14.2642C206.003 14.4825 205.941 14.7007 205.878 14.8878L202.324 25.675C202.012 26.5791 201.202 27.2027 200.204 27.2027C199.237 27.2027 198.396 26.5791 198.084 25.675L195.777 18.3484L193.439 25.675C193.127 26.5791 192.316 27.2027 191.319 27.2027Z" fill="#2678D1"/>
<path d="M176.705 27.2651C174.741 27.2651 172.87 26.7039 171.405 26.0491C170.501 25.675 170.033 24.8021 170.158 23.9291C170.251 22.682 171.561 21.9338 172.621 22.3391C173.868 22.8691 175.208 23.2744 176.58 23.2744C178.357 23.2744 179.947 22.7444 179.947 21.4973C179.947 20.4373 179.199 20.032 178.014 19.6579L175.021 18.7849C171.498 17.7561 169.908 16.0413 169.908 13.0172C169.908 9.24477 172.995 7.06238 177.266 7.06238C179.23 7.06238 180.82 7.4365 182.192 7.96651C183.034 8.27828 183.595 9.08888 183.564 9.99301C183.564 11.2401 182.473 12.2378 181.038 11.7701C179.916 11.3024 178.762 11.053 177.484 11.053C175.801 11.053 174.585 11.6454 174.585 12.6742C174.585 13.6719 175.395 14.046 176.487 14.4201L179.355 15.2931C183.034 16.4155 184.655 18.2549 184.655 21.2479C184.655 25.4256 181.288 27.2651 176.705 27.2651Z" fill="#2678D1"/>
<path d="M160.308 27.2027C159.28 27.2027 158.375 26.5168 158.095 25.5191V25.0515C157.035 26.2985 155.414 27.2027 153.387 27.2027C149.802 27.2027 146.902 24.1162 146.902 19.6578C146.902 15.0748 149.989 12.3001 153.387 12.3001C155.414 12.3001 156.972 13.2042 158.095 14.5448V9.24474C158.095 8.02884 159.061 7 160.308 7C161.556 7 162.522 8.02884 162.522 9.24474V24.9579C162.522 26.1738 161.556 27.2027 160.308 27.2027ZM154.884 23.4614C156.224 23.4614 157.471 22.7444 158.095 21.3414V17.9431C157.503 16.6337 156.224 15.8543 154.884 15.8543C152.701 15.8543 151.361 17.4755 151.361 19.6578C151.361 21.8714 152.67 23.4614 154.884 23.4614Z" fill="#80CC28"/>
<path d="M139.52 27.1715C134.937 27.1715 131.445 24.3032 131.445 19.8449C131.445 15.7919 134.345 12.3624 138.678 12.3624C143.043 12.3624 145.818 15.2307 145.88 19.0655C145.88 20.219 145.194 20.8737 144.01 20.8737H135.935C136.06 22.5261 137.681 23.6797 139.925 23.6797C140.798 23.6797 141.921 23.555 143.043 23.212C144.072 22.9314 145.07 23.7108 145.07 24.7709C145.07 25.4256 144.664 26.0179 144.103 26.2674C142.17 27.1091 140.362 27.1715 139.52 27.1715ZM135.935 18.099H141.547C141.36 16.7584 140.268 15.8231 138.772 15.8231C137.338 15.8231 136.184 16.7584 135.935 18.099Z" fill="#80CC28"/>
<path d="M123.786 27.2027C122.539 27.2027 121.541 26.1738 121.541 24.9579V14.6383C121.541 13.3913 122.539 12.3624 123.786 12.3624C124.908 12.3624 125.999 13.3289 125.999 14.4201V14.7942C126.779 13.5472 127.776 12.8613 129.086 12.7989C130.146 12.7677 131.05 13.6095 131.05 14.6695C131.05 15.6672 130.271 16.4466 129.273 16.5713C127.309 16.8207 125.999 17.8496 125.999 20.3437V24.9579C125.999 26.1738 125.002 27.2027 123.786 27.2027Z" fill="#80CC28"/>
<path d="M112.129 27.2028C107.857 27.2028 104.459 23.9604 104.459 19.7515C104.459 15.6985 107.764 12.3314 112.191 12.3314C116.556 12.3314 119.892 15.7297 119.892 19.7515C119.892 24.054 116.431 27.2028 112.129 27.2028ZM112.191 23.2745C114.124 23.2745 115.433 21.8716 115.433 19.7515C115.433 17.725 114.093 16.2597 112.129 16.2597C110.196 16.2597 108.917 17.7562 108.917 19.7515C108.917 21.8404 110.227 23.2745 112.191 23.2745Z" fill="#80CC28"/>
<path d="M100.54 27.2027C99.2927 27.2027 98.3262 26.1738 98.3262 24.9579V9.24474C98.3262 8.02884 99.2927 7 100.54 7C101.787 7 102.753 8.02884 102.753 9.24474V24.9579C102.753 26.1738 101.787 27.2027 100.54 27.2027Z" fill="#80CC28"/>
<path d="M93.8185 11.3648C92.3843 11.3648 91.3555 10.4606 91.3555 9.21356C91.3555 7.93531 92.3843 7 93.8185 7C95.2838 7 96.2814 7.96648 96.2814 9.21356C96.2814 10.4606 95.2838 11.3648 93.8185 11.3648ZM93.8185 27.2027C92.6025 27.2027 91.6049 26.1738 91.6049 24.9579V14.6072C91.6049 13.3913 92.6025 12.3624 93.8496 12.3624C95.0655 12.3624 96.0632 13.3913 96.0632 14.6072V24.9579C96.0632 26.1738 95.0655 27.2027 93.8185 27.2027Z" fill="#80CC28"/>
<path d="M81.0881 27.2027C78.3133 27.2027 76.1621 25.4879 76.1621 22.6508C76.1621 19.7825 78.4069 18.099 81.5245 18.099C82.9899 18.099 84.3305 18.4731 85.1411 19.0343V18.2237C85.1411 17.0078 84.3305 16.2595 82.8652 16.1037C81.8363 15.8854 80.5269 16.0413 79.2486 16.3219C78.251 16.5713 77.1598 15.7919 77.1598 14.7007C77.1598 13.9525 77.6898 13.3289 78.3757 13.1107C79.7163 12.643 81.244 12.3624 82.8028 12.3624C87.3235 12.3624 89.5682 14.3266 89.5682 18.2237V24.7397C89.5682 26.1115 88.6952 27.2027 87.3546 27.2027C86.357 27.2027 85.4528 26.5791 85.1411 25.6126V25.5191C84.2058 26.4856 82.834 27.2027 81.0881 27.2027ZM82.9275 24.0538C84.0499 24.0538 85.3281 23.5238 85.3281 22.4326C85.3281 21.279 84.0187 20.7802 82.9275 20.7802C81.774 20.7802 80.6204 21.279 80.6204 22.4014C80.6204 23.5238 81.774 24.0538 82.9275 24.0538Z" fill="#80CC28"/>
<path d="M69.106 27.2027C67.8278 27.2027 66.7677 26.1427 66.7677 24.8644V11.3648H62.9641C61.9041 11.3648 61 10.4919 61 9.40067C61 8.30948 61.9041 7.43652 62.9641 7.43652H75.2479C76.3391 7.43652 77.2432 8.30948 77.2432 9.40067C77.2432 10.4919 76.3391 11.3648 75.2479 11.3648H71.4755V24.8644C71.4755 26.1427 70.4154 27.2027 69.106 27.2027Z" fill="#80CC28"/>
<path d="M241.361 44.611C239.148 44.611 237.443 43.0023 237.443 40.884C237.443 38.9727 238.733 37.0295 240.979 37.0295C243.05 37.0295 244.308 38.6382 244.388 40.2787C244.388 40.7725 244.276 41.0751 243.751 41.0751H238.733C238.813 42.5404 239.801 43.4005 241.361 43.4005C241.999 43.4005 242.556 43.289 243.098 43.066C243.48 42.9227 243.878 43.1775 243.878 43.5757C243.878 43.7827 243.767 43.9739 243.591 44.0694C242.938 44.4358 242.19 44.611 241.361 44.611ZM238.797 40.0398H243.098C243.018 39.0205 242.11 38.24 240.963 38.24C239.832 38.24 238.925 39.0045 238.797 40.0398Z" fill="#2678D1"/>
<path d="M233.279 44.611C233.008 44.611 232.77 44.4358 232.674 44.2128L229.95 37.9055C229.919 37.8418 229.887 37.7303 229.887 37.6507C229.887 37.3003 230.173 37.0295 230.508 37.0295C230.763 37.0295 230.986 37.1888 231.065 37.3959L233.295 42.8749L235.525 37.3959C235.605 37.1888 235.828 37.0295 236.082 37.0295C236.417 37.0295 236.688 37.3003 236.688 37.6348C236.688 37.7303 236.656 37.8259 236.624 37.8896L233.884 44.2128C233.789 44.4358 233.55 44.611 233.279 44.611Z" fill="#2678D1"/>
<path d="M226.399 44.611C226.033 44.611 225.746 44.3083 225.746 43.9579V37.6826C225.746 37.3322 226.033 37.0295 226.383 37.0295C226.75 37.0295 227.036 37.3322 227.036 37.6826V38.017C227.371 37.6029 227.896 37.3162 228.502 37.2207C228.852 37.1729 229.17 37.4437 229.17 37.7941C229.17 38.1126 228.884 38.3197 228.565 38.3674C227.88 38.4789 227.036 38.7816 227.036 39.562V43.9579C227.036 44.3083 226.75 44.611 226.399 44.611Z" fill="#2678D1"/>
<path d="M221.432 44.611C219.218 44.611 217.514 43.0023 217.514 40.884C217.514 38.9727 218.804 37.0295 221.05 37.0295C223.12 37.0295 224.378 38.6382 224.458 40.2787C224.458 40.7725 224.347 41.0751 223.821 41.0751H218.804C218.883 42.5404 219.871 43.4005 221.432 43.4005C222.069 43.4005 222.626 43.289 223.168 43.066C223.55 42.9227 223.948 43.1775 223.948 43.5757C223.948 43.7827 223.837 43.9739 223.662 44.0694C223.009 44.4358 222.26 44.611 221.432 44.611ZM218.867 40.0398H223.168C223.088 39.0205 222.18 38.24 221.034 38.24C219.903 38.24 218.995 39.0045 218.867 40.0398Z" fill="#2678D1"/>
<path d="M213.908 44.611C213.048 44.611 212.156 44.3243 211.519 43.9102C211.36 43.7987 211.248 43.6235 211.248 43.4164C211.248 42.9227 211.821 42.7156 212.108 42.9067C212.952 43.3686 213.366 43.4005 213.908 43.4005C214.816 43.4005 215.357 43.0342 215.357 42.4448C215.357 42.0626 215.071 41.76 214.481 41.5529L213.159 41.1069C211.901 40.6769 211.344 40.0557 211.344 39.0842C211.344 37.8737 212.411 37.0295 213.94 37.0295C214.704 37.0295 215.548 37.3162 216.17 37.6985C216.345 37.81 216.44 37.9852 216.44 38.1922C216.44 38.6223 215.994 38.9249 215.58 38.7019C214.768 38.2719 214.418 38.24 213.94 38.24C213.127 38.24 212.634 38.5745 212.634 39.0842C212.634 39.4346 212.857 39.6257 213.701 39.9283L215.023 40.4061C216.074 40.7884 216.647 41.4892 216.647 42.4448C216.647 43.7031 215.501 44.611 213.908 44.611Z" fill="#2678D1"/>
<path d="M207.285 44.611C205.071 44.611 203.367 43.0023 203.367 40.884C203.367 38.9727 204.657 37.0295 206.903 37.0295C208.974 37.0295 210.232 38.6382 210.312 40.2787C210.312 40.7725 210.2 41.0751 209.674 41.0751H204.657C204.737 42.5404 205.724 43.4005 207.285 43.4005C207.922 43.4005 208.48 43.289 209.021 43.066C209.404 42.9227 209.802 43.1775 209.802 43.5757C209.802 43.7827 209.69 43.9739 209.515 44.0694C208.862 44.4358 208.114 44.611 207.285 44.611ZM204.721 40.0398H209.021C208.942 39.0205 208.034 38.24 206.887 38.24C205.756 38.24 204.848 39.0045 204.721 40.0398Z" fill="#2678D1"/>
<path d="M201.441 44.6108C201.091 44.6108 200.804 44.3082 200.804 43.9578V43.48C200.151 44.2286 199.323 44.6108 198.351 44.6108C196.328 44.6108 194.768 42.9385 194.768 40.7883C194.768 38.3992 196.583 37.0135 198.351 37.0135C199.307 37.0135 200.119 37.3958 200.804 38.1921V34.9429C200.804 34.5925 201.091 34.2899 201.441 34.2899C201.807 34.2899 202.094 34.5925 202.094 34.9429V43.9578C202.094 44.3082 201.807 44.6108 201.441 44.6108ZM198.542 43.4004C199.482 43.4004 200.374 42.7951 200.804 41.8873V39.7211C200.39 38.8133 199.498 38.224 198.542 38.224C197.077 38.224 196.058 39.2593 196.058 40.7883C196.058 42.381 197.029 43.4004 198.542 43.4004Z" fill="#2678D1"/>
<path d="M186.752 44.611C185.032 44.611 183.869 43.4323 183.869 41.7122V37.6826C183.869 37.3322 184.156 37.0295 184.522 37.0295C184.873 37.0295 185.159 37.3322 185.159 37.6826V41.314C185.159 42.62 185.86 43.4005 187.055 43.4005C188.281 43.4005 189.125 42.5086 189.125 41.2344V37.6826C189.125 37.3322 189.412 37.0295 189.778 37.0295C190.129 37.0295 190.415 37.3322 190.415 37.6826V43.9579C190.415 44.3083 190.129 44.611 189.778 44.611C189.412 44.611 189.125 44.3083 189.125 43.9579V43.3686C188.552 44.1969 187.771 44.611 186.752 44.611Z" fill="#2678D1"/>
<path d="M178.722 44.611C176.62 44.611 174.947 42.9545 174.947 40.8203C174.947 38.7019 176.62 37.0295 178.754 37.0295C180.872 37.0295 182.545 38.7178 182.545 40.8203C182.545 42.9704 180.872 44.611 178.722 44.611ZM178.754 43.4005C180.251 43.4005 181.255 42.3811 181.255 40.8203C181.255 39.3072 180.203 38.24 178.722 38.24C177.241 38.24 176.237 39.2912 176.237 40.8203C176.237 42.3652 177.257 43.4005 178.754 43.4005Z" fill="#2678D1"/>
<path d="M170.134 47.0001C169.783 47.0001 169.497 46.7134 169.497 46.347C169.497 46.2993 169.497 46.2037 169.528 46.1241L170.373 43.8465L168.079 37.9055C168.047 37.8418 168.031 37.7622 168.031 37.6666C168.031 37.3162 168.334 37.0295 168.684 37.0295C168.955 37.0295 169.178 37.2047 169.274 37.4437L171.073 42.2378L172.873 37.4437C172.969 37.2047 173.192 37.0295 173.462 37.0295C173.813 37.0295 174.1 37.3162 174.1 37.6666C174.1 37.7622 174.1 37.8418 174.068 37.9055L170.739 46.586C170.643 46.8249 170.404 47.0001 170.134 47.0001Z" fill="#2678D1"/>
<path d="M161.32 44.611C160.46 44.611 159.568 44.3243 158.931 43.9102C158.772 43.7987 158.66 43.6235 158.66 43.4164C158.66 42.9227 159.234 42.7156 159.52 42.9067C160.364 43.3686 160.778 43.4005 161.32 43.4005C162.228 43.4005 162.769 43.0342 162.769 42.4448C162.769 42.0626 162.483 41.76 161.893 41.5529L160.571 41.1069C159.313 40.6769 158.756 40.0557 158.756 39.0842C158.756 37.8737 159.823 37.0295 161.352 37.0295C162.116 37.0295 162.961 37.3162 163.582 37.6985C163.757 37.81 163.852 37.9852 163.852 38.1922C163.852 38.6223 163.407 38.9249 162.992 38.7019C162.18 38.2719 161.83 38.24 161.352 38.24C160.54 38.24 160.046 38.5745 160.046 39.0842C160.046 39.4346 160.269 39.6257 161.113 39.9283L162.435 40.4061C163.486 40.7884 164.06 41.4892 164.06 42.4448C164.06 43.7031 162.913 44.611 161.32 44.611Z" fill="#2678D1"/>
<path d="M155.054 44.611C154.194 44.611 153.302 44.3243 152.665 43.9102C152.506 43.7987 152.395 43.6235 152.395 43.4164C152.395 42.9227 152.968 42.7156 153.255 42.9067C154.099 43.3686 154.513 43.4005 155.054 43.4005C155.962 43.4005 156.504 43.0342 156.504 42.4448C156.504 42.0626 156.217 41.76 155.628 41.5529L154.306 41.1069C153.048 40.6769 152.49 40.0557 152.49 39.0842C152.49 37.8737 153.557 37.0295 155.086 37.0295C155.851 37.0295 156.695 37.3162 157.316 37.6985C157.491 37.81 157.587 37.9852 157.587 38.1922C157.587 38.6223 157.141 38.9249 156.727 38.7019C155.914 38.2719 155.564 38.24 155.086 38.24C154.274 38.24 153.78 38.5745 153.78 39.0842C153.78 39.4346 154.003 39.6257 154.847 39.9283L156.169 40.4061C157.221 40.7884 157.794 41.4892 157.794 42.4448C157.794 43.7031 156.647 44.611 155.054 44.611Z" fill="#2678D1"/>
<path d="M148.432 44.611C146.218 44.611 144.514 43.0023 144.514 40.884C144.514 38.9727 145.804 37.0295 148.05 37.0295C150.12 37.0295 151.378 38.6382 151.458 40.2787C151.458 40.7725 151.347 41.0751 150.821 41.0751H145.804C145.883 42.5404 146.871 43.4005 148.432 43.4005C149.069 43.4005 149.626 43.289 150.168 43.066C150.55 42.9227 150.948 43.1775 150.948 43.5757C150.948 43.7827 150.837 43.9739 150.662 44.0694C150.009 44.4358 149.26 44.611 148.432 44.611ZM145.867 40.0398H150.168C150.088 39.0205 149.18 38.24 148.034 38.24C146.903 38.24 145.995 39.0045 145.867 40.0398Z" fill="#2678D1"/>
<path d="M137.37 44.611C137.019 44.611 136.732 44.3083 136.732 43.9579V37.6826C136.732 37.3322 137.019 37.0295 137.37 37.0295C137.736 37.0295 138.023 37.3322 138.023 37.6826V38.2719C138.596 37.4437 139.376 37.0295 140.396 37.0295C142.116 37.0295 143.279 38.2082 143.279 39.9283V43.9579C143.279 44.3083 142.992 44.611 142.626 44.611C142.275 44.611 141.988 44.3083 141.988 43.9579V40.3265C141.988 39.0205 141.288 38.24 140.093 38.24C138.867 38.24 138.023 39.132 138.023 40.4061V43.9579C138.023 44.3083 137.736 44.611 137.37 44.611Z" fill="#2678D1"/>
<path d="M134.465 36.1056C133.955 36.1056 133.557 35.7075 133.557 35.1978C133.557 34.6881 133.955 34.2899 134.465 34.2899C134.958 34.2899 135.356 34.6881 135.356 35.1978C135.356 35.7075 134.958 36.1056 134.465 36.1056ZM134.449 44.6108C134.098 44.6108 133.811 44.3082 133.811 43.9578V37.6824C133.811 37.332 134.098 37.0294 134.465 37.0294C134.815 37.0294 135.102 37.332 135.102 37.6824V43.9578C135.102 44.3082 134.815 44.6108 134.449 44.6108Z" fill="#2678D1"/>
<path d="M131.546 44.6108C131.179 44.6108 130.893 44.3082 130.893 43.9578V34.9429C130.893 34.5925 131.179 34.2899 131.546 34.2899C131.896 34.2899 132.183 34.5925 132.183 34.9429V43.9578C132.183 44.3082 131.896 44.6108 131.546 44.6108Z" fill="#2678D1"/>
<path d="M123.336 44.611C122.986 44.611 122.699 44.3083 122.699 43.9579V37.6826C122.699 37.3322 122.986 37.0295 123.336 37.0295C123.703 37.0295 123.989 37.3322 123.989 37.6826V38.2719C124.563 37.4437 125.343 37.0295 126.363 37.0295C128.083 37.0295 129.245 38.2082 129.245 39.9283V43.9579C129.245 44.3083 128.959 44.611 128.592 44.611C128.242 44.611 127.955 44.3083 127.955 43.9579V40.3265C127.955 39.0205 127.254 38.24 126.06 38.24C124.833 38.24 123.989 39.132 123.989 40.4061V43.9579C123.989 44.3083 123.703 44.611 123.336 44.611Z" fill="#2678D1"/>
<path d="M117.613 44.6269C115.861 44.6269 114.635 43.6235 114.635 42.2059C114.635 40.8521 115.893 39.8646 117.613 39.8646C118.521 39.8646 119.286 40.1354 119.763 40.6291V39.8009C119.763 38.8134 119.063 38.24 117.788 38.24C117.231 38.24 116.721 38.3674 116.228 38.5586C115.893 38.686 115.431 38.4471 115.431 38.017C115.431 37.7781 115.574 37.587 115.797 37.4914C116.403 37.2366 117.183 37.0295 118.027 37.0295C119.859 37.0295 121.053 38.0648 121.053 39.7053V43.9579C121.053 44.3243 120.767 44.611 120.416 44.611C120.066 44.611 119.763 44.3561 119.763 43.8942V43.8146C119.397 44.2128 118.553 44.6269 117.613 44.6269ZM117.788 43.4642C118.76 43.4642 119.795 43.0819 119.795 42.2059C119.795 41.3459 118.744 40.9477 117.788 40.9477C116.833 40.9477 115.925 41.3459 115.925 42.2059C115.925 43.0819 116.833 43.4642 117.788 43.4642Z" fill="#2678D1"/>
<path d="M110.75 44.611C108.536 44.611 106.832 43.0023 106.832 40.884C106.832 38.9727 108.122 37.0295 110.368 37.0295C112.438 37.0295 113.697 38.6382 113.776 40.2787C113.776 40.7725 113.665 41.0751 113.139 41.0751H108.122C108.202 42.5404 109.189 43.4005 110.75 43.4005C111.387 43.4005 111.945 43.289 112.486 43.066C112.869 42.9227 113.267 43.1775 113.267 43.5757C113.267 43.7827 113.155 43.9739 112.98 44.0694C112.327 44.4358 111.578 44.611 110.75 44.611ZM108.186 40.0398H112.486C112.407 39.0205 111.499 38.24 110.352 38.24C109.221 38.24 108.313 39.0045 108.186 40.0398Z" fill="#2678D1"/>
<path d="M104.917 44.6108C104.55 44.6108 104.264 44.3082 104.264 43.9578V34.9429C104.264 34.5925 104.55 34.2899 104.917 34.2899C105.267 34.2899 105.554 34.5925 105.554 34.9429V43.9578C105.554 44.3082 105.267 44.6108 104.917 44.6108Z" fill="#2678D1"/>
<path d="M100.876 44.611C98.7739 44.611 97.1016 42.9545 97.1016 40.8203C97.1016 38.686 98.7739 37.0295 100.876 37.0295C101.513 37.0295 102.135 37.157 102.708 37.4277C102.899 37.5233 103.042 37.7144 103.042 37.9533C103.042 38.3993 102.581 38.6541 102.214 38.4949C101.848 38.3197 101.418 38.24 100.908 38.24C99.411 38.24 98.3917 39.2753 98.3917 40.8203C98.3917 42.3652 99.411 43.4005 100.908 43.4005C101.418 43.4005 101.848 43.3208 102.214 43.1456C102.581 42.9864 103.042 43.2412 103.042 43.6872C103.042 43.9261 102.899 44.1172 102.708 44.2128C102.135 44.4835 101.513 44.611 100.876 44.611Z" fill="#2678D1"/>
<path d="M90.1095 44.611C87.8956 44.611 86.1914 43.0023 86.1914 40.884C86.1914 38.9727 87.4815 37.0295 89.7273 37.0295C91.7978 37.0295 93.0561 38.6382 93.1357 40.2787C93.1357 40.7725 93.0242 41.0751 92.4986 41.0751H87.4815C87.5612 42.5404 88.5487 43.4005 90.1095 43.4005C90.7466 43.4005 91.3041 43.289 91.8456 43.066C92.2279 42.9227 92.6261 43.1775 92.6261 43.5757C92.6261 43.7827 92.5146 43.9739 92.3394 44.0694C91.6863 44.4358 90.9378 44.611 90.1095 44.611ZM87.5452 40.0398H91.8456C91.766 39.0205 90.8581 38.24 89.7114 38.24C88.5805 38.24 87.6727 39.0045 87.5452 40.0398Z" fill="#2678D1"/>
<path d="M79.0495 44.6108C78.6832 44.6108 78.3965 44.3082 78.3965 43.9578V34.9429C78.3965 34.5925 78.6832 34.2899 79.0495 34.2899C79.3999 34.2899 79.6866 34.5925 79.6866 34.9429V38.2877C80.26 37.4595 81.0564 37.0294 82.0757 37.0294C83.8118 37.0294 84.9745 38.208 84.9745 39.9441V43.9578C84.9745 44.3082 84.6878 44.6108 84.3215 44.6108C83.9711 44.6108 83.6844 44.3082 83.6844 43.9578V40.3264C83.6844 39.0044 82.9676 38.2399 81.7731 38.2399C80.5467 38.2399 79.6866 39.1159 79.6866 40.406V43.9578C79.6866 44.3082 79.3999 44.6108 79.0495 44.6108Z" fill="#2678D1"/>
<path d="M73.8056 44.6109C73.4233 44.6109 73.1048 44.2923 73.1048 43.9101V35.7712H70.7953C70.4608 35.7712 70.1582 35.4845 70.1582 35.1341C70.1582 34.7996 70.4608 34.5129 70.7953 34.5129H76.7999C77.1344 34.5129 77.437 34.7996 77.437 35.1341C77.437 35.4845 77.1344 35.7712 76.7999 35.7712H74.5064V43.9101C74.5064 44.2923 74.1878 44.6109 73.8056 44.6109Z" fill="#2678D1"/>
<path d="M34.2894 32.0802L28.28 25.8584L28.189 25.9494L28.1283 26.0101C21.0385 32.1045 14.3088 30.4312 11.8302 28.8327H11.7695C12.5708 32.7661 15.0372 33.8911 16.1703 33.9619C16.1703 33.972 16.1642 33.9983 16.14 34.0226C13.9547 34.1683 12.6396 33.2537 12.2551 32.7782H12.1944C13.02 36.9787 16.5649 40.2545 18.2341 41.3673C18.2544 41.3775 18.3009 41.3977 18.3252 41.3977C19.5149 41.3734 20.4598 41.0436 20.7835 40.8817L20.7532 40.9121C20.389 41.4463 19.8123 41.9238 19.5695 42.0958C19.5493 42.0958 19.5028 42.1018 19.4785 42.1261C21.5423 43.4008 23.6061 43.9168 23.6365 43.9168C24.0978 43.674 24.7594 43.1884 25.0326 42.9759C25.0528 42.9658 25.0933 42.9516 25.0933 42.9759C24.9476 43.413 24.466 43.8459 24.2435 44.0078H24.3042C29.233 42.7452 33.0147 35.53 34.2894 32.0802Z" fill="#24A9E1"/>
<path d="M25.762 28.6081C23.7468 31.376 19.176 31.4206 17.1426 31.0968C21.5616 31.2911 24.7099 29.4984 25.7317 28.5778L25.762 28.6081Z" fill="white"/>
<path d="M35.9882 15.3754C31.7998 12.1988 20.6778 7.73194 11.1314 16.8323C-0.948017 28.3471 6.54848 40.6572 10.8582 45.1793C15.1651 49.6985 25.6551 54.0055 35.7555 46.9235C35.7622 46.9187 35.7689 46.914 35.7757 46.9093C35.769 46.914 35.7623 46.9188 35.7555 46.9235C35.524 47.0885 35.3697 47.285 35.3205 47.3646C32.3259 50.005 23.9331 54.3208 14.3181 50.4603C4.70321 46.5997 1.67223 36.9949 1.35861 32.6751C0.923584 28.6891 2.26909 19.2846 11.1314 13.5544C19.9936 7.82432 28.9065 10.6004 32.2551 12.7046L34.6528 14.2828L35.9882 15.3754Z" fill="#8DC641"/>
<path d="M35.9882 15.3754C31.7998 12.1988 20.6778 7.73194 11.1314 16.8323C-0.948017 28.3471 6.54848 40.6572 10.8582 45.1793C15.1679 49.7015 25.6691 54.0113 35.7757 46.9093C35.5329 47.0771 35.3711 47.2827 35.3205 47.3646C32.3259 50.005 23.9331 54.3208 14.3181 50.4603C4.70321 46.5997 1.67223 36.9949 1.35861 32.6751C0.923584 28.6891 2.26909 19.2846 11.1314 13.5544C19.9936 7.82432 28.9065 10.6004 32.2551 12.7046L34.6528 14.2828L35.9882 15.3754Z" stroke="#8DC73F"/>
<path d="M14.5619 15.1448C10.7449 17.981 3.97257 26.3442 9.1342 37.1021C15.5862 50.5494 28.6889 47.0927 33.7062 44.4905C38.72 41.8899 45.108 33.8656 41.4978 23.3066C41.4953 23.2996 41.4929 23.2926 41.4906 23.2855C41.493 23.2925 41.4954 23.2996 41.4978 23.3066C41.5829 23.5494 41.7148 23.733 41.7716 23.7958C43.312 27.0627 44.948 35.4408 39.1687 42.8177C33.3894 50.1945 24.2764 50.404 20.4423 49.5866C16.8678 48.9589 9.03208 45.4178 6.28495 36.2752C3.53783 27.1326 8.62614 20.0907 11.2993 17.7132L13.2755 16.029L14.5619 15.1448Z" fill="#0E74BC"/>
<path d="M23.0287 0.716288C17.1044 0.400646 12.7299 3.59956 11.2832 5.23847C11.696 4.41295 13.3167 3.21512 14.0754 2.7194C14.0957 2.70928 14.1422 2.68298 14.1665 2.65869C16.8373 0.740562 20.4388 0.119396 21.9058 0.0485792C25.5883 -0.305506 33.8941 1.11691 37.6575 9.63924C41.4209 18.1616 37.2427 25.2291 34.6832 27.6976C34.663 27.7077 34.6043 27.7401 34.5315 27.7887C34.1672 26.9389 33.2669 26.2408 32.8622 25.998L32.9532 25.9069C37.5968 21.5972 38.0217 13.3723 36.0186 9.63924C34.0155 5.90617 30.4342 1.11084 23.0287 0.716288Z" fill="#80CC28"/>
<path d="M34.3505 31.6127L28.6143 25.6337L28.584 25.6034L28.6143 25.573C30.6296 24.8446 32.4688 26.0182 33.1365 26.696L33.1972 26.7567C34.9454 28.1407 34.6945 30.5707 34.3505 31.6127Z" fill="#80CC28"/>
<path d="M33.3175 27.4367C34.3978 28.2487 34.3651 29.7923 34.2251 30.5929C34.1948 28.4988 33.6788 28.256 33.3053 27.4485L33.3175 27.4367Z" fill="white"/>
</svg>
