<svg width="253" height="55" viewBox="0 0 253 55" fill="none" xmlns="http://www.w3.org/2000/svg">
<path d="M239.46 31.8792C238.213 31.8792 237.246 30.8504 237.246 29.6345V14.7007C237.246 13.3913 238.181 12.3624 239.46 12.3624C240.489 12.3624 241.361 13.0795 241.642 14.0148L241.673 14.5136C242.764 13.2354 244.354 12.3624 246.381 12.3624C249.779 12.3624 252.866 15.1995 252.866 19.7825C252.866 24.1785 249.966 27.1403 246.381 27.1403C244.354 27.1403 242.764 26.2674 241.673 24.9579V29.6345C241.673 30.8504 240.707 31.8792 239.46 31.8792ZM244.884 23.5861C247.098 23.5861 248.407 22.0273 248.407 19.7825C248.407 17.6313 247.067 16.0413 244.884 16.0413C243.544 16.0413 242.297 16.7584 241.673 18.1613V21.5285C242.297 22.8379 243.544 23.5861 244.884 23.5861Z" fill="white"/>
<path d="M229.268 27.1715C224.685 27.1715 221.193 24.3032 221.193 19.8449C221.193 15.7919 224.093 12.3624 228.426 12.3624C232.791 12.3624 235.566 15.2307 235.628 19.0655C235.628 20.219 234.942 20.8737 233.758 20.8737H225.683C225.808 22.5261 227.429 23.6797 229.673 23.6797C230.546 23.6797 231.669 23.555 232.791 23.212C233.82 22.9314 234.818 23.7108 234.818 24.7709C234.818 25.4256 234.412 26.0179 233.851 26.2674C231.918 27.1091 230.11 27.1715 229.268 27.1715ZM225.683 18.099H231.295C231.108 16.7584 230.016 15.8231 228.52 15.8231C227.086 15.8231 225.932 16.7584 225.683 18.099Z" fill="white"/>
<path d="M213.776 27.1715C209.193 27.1715 205.701 24.3032 205.701 19.8449C205.701 15.7919 208.601 12.3624 212.934 12.3624C217.299 12.3624 220.074 15.2307 220.136 19.0655C220.136 20.219 219.45 20.8737 218.265 20.8737H210.191C210.315 22.5261 211.937 23.6797 214.181 23.6797C215.054 23.6797 216.177 23.555 217.299 23.212C218.328 22.9314 219.326 23.7108 219.326 24.7709C219.326 25.4256 218.92 26.0179 218.359 26.2674C216.426 27.1091 214.618 27.1715 213.776 27.1715ZM210.191 18.099H215.803C215.615 16.7584 214.524 15.8231 213.028 15.8231C211.594 15.8231 210.44 16.7584 210.191 18.099Z" fill="white"/>
<path d="M190.319 27.2027C189.352 27.2027 188.51 26.5791 188.198 25.675L184.644 14.8878C184.613 14.7007 184.551 14.4825 184.551 14.2642C184.551 13.2042 185.393 12.3624 186.453 12.3624C187.294 12.3624 188.011 12.9236 188.23 13.703L190.35 20.9984L192.22 14.2954C192.532 13.2042 193.561 12.3624 194.777 12.3624C195.993 12.3624 196.99 13.1419 197.302 14.2642L199.235 20.9984L201.293 13.7342C201.511 12.986 202.228 12.3624 203.101 12.3624C204.161 12.3624 205.003 13.2042 205.003 14.2642C205.003 14.4825 204.941 14.7007 204.878 14.8878L201.324 25.675C201.012 26.5791 200.202 27.2027 199.204 27.2027C198.237 27.2027 197.396 26.5791 197.084 25.675L194.777 18.3484L192.439 25.675C192.127 26.5791 191.316 27.2027 190.319 27.2027Z" fill="white"/>
<path d="M175.705 27.2651C173.741 27.2651 171.87 26.7039 170.405 26.0491C169.501 25.675 169.033 24.8021 169.158 23.9291C169.251 22.682 170.561 21.9338 171.621 22.3391C172.868 22.8691 174.208 23.2744 175.58 23.2744C177.357 23.2744 178.947 22.7444 178.947 21.4973C178.947 20.4373 178.199 20.032 177.014 19.6579L174.021 18.7849C170.498 17.7561 168.908 16.0413 168.908 13.0172C168.908 9.24477 171.995 7.06238 176.266 7.06238C178.23 7.06238 179.82 7.4365 181.192 7.96651C182.034 8.27828 182.595 9.08888 182.564 9.99301C182.564 11.2401 181.473 12.2378 180.038 11.7701C178.916 11.3024 177.762 11.053 176.484 11.053C174.801 11.053 173.585 11.6454 173.585 12.6742C173.585 13.6719 174.395 14.046 175.487 14.4201L178.355 15.2931C182.034 16.4155 183.655 18.2549 183.655 21.2479C183.655 25.4256 180.288 27.2651 175.705 27.2651Z" fill="white"/>
<path d="M159.308 27.2027C158.28 27.2027 157.375 26.5168 157.095 25.5191V25.0515C156.035 26.2985 154.414 27.2027 152.387 27.2027C148.802 27.2027 145.902 24.1162 145.902 19.6578C145.902 15.0748 148.989 12.3001 152.387 12.3001C154.414 12.3001 155.972 13.2042 157.095 14.5448V9.24474C157.095 8.02884 158.061 7 159.308 7C160.556 7 161.522 8.02884 161.522 9.24474V24.9579C161.522 26.1738 160.556 27.2027 159.308 27.2027ZM153.884 23.4614C155.224 23.4614 156.471 22.7444 157.095 21.3414V17.9431C156.503 16.6337 155.224 15.8543 153.884 15.8543C151.701 15.8543 150.361 17.4755 150.361 19.6578C150.361 21.8714 151.67 23.4614 153.884 23.4614Z" fill="white"/>
<path d="M138.52 27.1715C133.937 27.1715 130.445 24.3032 130.445 19.8449C130.445 15.7919 133.345 12.3624 137.678 12.3624C142.043 12.3624 144.818 15.2307 144.88 19.0655C144.88 20.219 144.194 20.8737 143.01 20.8737H134.935C135.06 22.5261 136.681 23.6797 138.925 23.6797C139.798 23.6797 140.921 23.555 142.043 23.212C143.072 22.9314 144.07 23.7108 144.07 24.7709C144.07 25.4256 143.664 26.0179 143.103 26.2674C141.17 27.1091 139.362 27.1715 138.52 27.1715ZM134.935 18.099H140.547C140.36 16.7584 139.268 15.8231 137.772 15.8231C136.338 15.8231 135.184 16.7584 134.935 18.099Z" fill="white"/>
<path d="M122.786 27.2027C121.539 27.2027 120.541 26.1738 120.541 24.9579V14.6383C120.541 13.3913 121.539 12.3624 122.786 12.3624C123.908 12.3624 124.999 13.3289 124.999 14.4201V14.7942C125.779 13.5472 126.776 12.8613 128.086 12.7989C129.146 12.7677 130.05 13.6095 130.05 14.6695C130.05 15.6672 129.271 16.4466 128.273 16.5713C126.309 16.8207 124.999 17.8496 124.999 20.3437V24.9579C124.999 26.1738 124.002 27.2027 122.786 27.2027Z" fill="white"/>
<path d="M111.129 27.2028C106.857 27.2028 103.459 23.9604 103.459 19.7515C103.459 15.6985 106.764 12.3314 111.191 12.3314C115.556 12.3314 118.892 15.7297 118.892 19.7515C118.892 24.054 115.431 27.2028 111.129 27.2028ZM111.191 23.2745C113.124 23.2745 114.433 21.8716 114.433 19.7515C114.433 17.725 113.093 16.2597 111.129 16.2597C109.196 16.2597 107.917 17.7562 107.917 19.7515C107.917 21.8404 109.227 23.2745 111.191 23.2745Z" fill="white"/>
<path d="M99.5397 27.2027C98.2927 27.2027 97.3262 26.1738 97.3262 24.9579V9.24474C97.3262 8.02884 98.2927 7 99.5397 7C100.787 7 101.753 8.02884 101.753 9.24474V24.9579C101.753 26.1738 100.787 27.2027 99.5397 27.2027Z" fill="white"/>
<path d="M92.8185 11.3648C91.3843 11.3648 90.3555 10.4606 90.3555 9.21356C90.3555 7.93531 91.3843 7 92.8185 7C94.2838 7 95.2814 7.96648 95.2814 9.21356C95.2814 10.4606 94.2838 11.3648 92.8185 11.3648ZM92.8185 27.2027C91.6025 27.2027 90.6049 26.1738 90.6049 24.9579V14.6072C90.6049 13.3913 91.6025 12.3624 92.8496 12.3624C94.0655 12.3624 95.0632 13.3913 95.0632 14.6072V24.9579C95.0632 26.1738 94.0655 27.2027 92.8185 27.2027Z" fill="white"/>
<path d="M80.0881 27.2027C77.3133 27.2027 75.1621 25.4879 75.1621 22.6508C75.1621 19.7825 77.4069 18.099 80.5245 18.099C81.9899 18.099 83.3305 18.4731 84.1411 19.0343V18.2237C84.1411 17.0078 83.3305 16.2595 81.8652 16.1037C80.8363 15.8854 79.5269 16.0413 78.2486 16.3219C77.251 16.5713 76.1598 15.7919 76.1598 14.7007C76.1598 13.9525 76.6898 13.3289 77.3757 13.1107C78.7163 12.643 80.244 12.3624 81.8028 12.3624C86.3235 12.3624 88.5682 14.3266 88.5682 18.2237V24.7397C88.5682 26.1115 87.6952 27.2027 86.3546 27.2027C85.357 27.2027 84.4528 26.5791 84.1411 25.6126V25.5191C83.2058 26.4856 81.834 27.2027 80.0881 27.2027ZM81.9275 24.0538C83.0499 24.0538 84.3281 23.5238 84.3281 22.4326C84.3281 21.279 83.0187 20.7802 81.9275 20.7802C80.774 20.7802 79.6204 21.279 79.6204 22.4014C79.6204 23.5238 80.774 24.0538 81.9275 24.0538Z" fill="white"/>
<path d="M68.106 27.2027C66.8278 27.2027 65.7677 26.1427 65.7677 24.8644V11.3648H61.9641C60.9041 11.3648 60 10.4919 60 9.40067C60 8.30948 60.9041 7.43652 61.9641 7.43652H74.2479C75.3391 7.43652 76.2432 8.30948 76.2432 9.40067C76.2432 10.4919 75.3391 11.3648 74.2479 11.3648H70.4755V24.8644C70.4755 26.1427 69.4154 27.2027 68.106 27.2027Z" fill="white"/>
<path d="M240.361 44.611C238.148 44.611 236.443 43.0023 236.443 40.884C236.443 38.9727 237.733 37.0295 239.979 37.0295C242.05 37.0295 243.308 38.6382 243.388 40.2787C243.388 40.7725 243.276 41.0751 242.751 41.0751H237.733C237.813 42.5404 238.801 43.4005 240.361 43.4005C240.999 43.4005 241.556 43.289 242.098 43.066C242.48 42.9227 242.878 43.1775 242.878 43.5757C242.878 43.7827 242.767 43.9739 242.591 44.0694C241.938 44.4358 241.19 44.611 240.361 44.611ZM237.797 40.0398H242.098C242.018 39.0205 241.11 38.24 239.963 38.24C238.832 38.24 237.925 39.0045 237.797 40.0398Z" fill="white"/>
<path d="M232.279 44.611C232.008 44.611 231.77 44.4358 231.674 44.2128L228.95 37.9055C228.919 37.8418 228.887 37.7303 228.887 37.6507C228.887 37.3003 229.173 37.0295 229.508 37.0295C229.763 37.0295 229.986 37.1888 230.065 37.3959L232.295 42.8749L234.525 37.3959C234.605 37.1888 234.828 37.0295 235.082 37.0295C235.417 37.0295 235.688 37.3003 235.688 37.6348C235.688 37.7303 235.656 37.8259 235.624 37.8896L232.884 44.2128C232.789 44.4358 232.55 44.611 232.279 44.611Z" fill="white"/>
<path d="M225.399 44.611C225.033 44.611 224.746 44.3083 224.746 43.9579V37.6826C224.746 37.3322 225.033 37.0295 225.383 37.0295C225.75 37.0295 226.036 37.3322 226.036 37.6826V38.017C226.371 37.6029 226.896 37.3162 227.502 37.2207C227.852 37.1729 228.17 37.4437 228.17 37.7941C228.17 38.1126 227.884 38.3197 227.565 38.3674C226.88 38.4789 226.036 38.7816 226.036 39.562V43.9579C226.036 44.3083 225.75 44.611 225.399 44.611Z" fill="white"/>
<path d="M220.432 44.611C218.218 44.611 216.514 43.0023 216.514 40.884C216.514 38.9727 217.804 37.0295 220.05 37.0295C222.12 37.0295 223.378 38.6382 223.458 40.2787C223.458 40.7725 223.347 41.0751 222.821 41.0751H217.804C217.883 42.5404 218.871 43.4005 220.432 43.4005C221.069 43.4005 221.626 43.289 222.168 43.066C222.55 42.9227 222.948 43.1775 222.948 43.5757C222.948 43.7827 222.837 43.9739 222.662 44.0694C222.009 44.4358 221.26 44.611 220.432 44.611ZM217.867 40.0398H222.168C222.088 39.0205 221.18 38.24 220.034 38.24C218.903 38.24 217.995 39.0045 217.867 40.0398Z" fill="white"/>
<path d="M212.908 44.611C212.048 44.611 211.156 44.3243 210.519 43.9102C210.36 43.7987 210.248 43.6235 210.248 43.4164C210.248 42.9227 210.821 42.7156 211.108 42.9067C211.952 43.3686 212.366 43.4005 212.908 43.4005C213.816 43.4005 214.357 43.0342 214.357 42.4448C214.357 42.0626 214.071 41.76 213.481 41.5529L212.159 41.1069C210.901 40.6769 210.344 40.0557 210.344 39.0842C210.344 37.8737 211.411 37.0295 212.94 37.0295C213.704 37.0295 214.548 37.3162 215.17 37.6985C215.345 37.81 215.44 37.9852 215.44 38.1922C215.44 38.6223 214.994 38.9249 214.58 38.7019C213.768 38.2719 213.418 38.24 212.94 38.24C212.127 38.24 211.634 38.5745 211.634 39.0842C211.634 39.4346 211.857 39.6257 212.701 39.9283L214.023 40.4061C215.074 40.7884 215.647 41.4892 215.647 42.4448C215.647 43.7031 214.501 44.611 212.908 44.611Z" fill="white"/>
<path d="M206.285 44.611C204.071 44.611 202.367 43.0023 202.367 40.884C202.367 38.9727 203.657 37.0295 205.903 37.0295C207.974 37.0295 209.232 38.6382 209.312 40.2787C209.312 40.7725 209.2 41.0751 208.674 41.0751H203.657C203.737 42.5404 204.724 43.4005 206.285 43.4005C206.922 43.4005 207.48 43.289 208.021 43.066C208.404 42.9227 208.802 43.1775 208.802 43.5757C208.802 43.7827 208.69 43.9739 208.515 44.0694C207.862 44.4358 207.114 44.611 206.285 44.611ZM203.721 40.0398H208.021C207.942 39.0205 207.034 38.24 205.887 38.24C204.756 38.24 203.848 39.0045 203.721 40.0398Z" fill="white"/>
<path d="M200.441 44.6108C200.091 44.6108 199.804 44.3082 199.804 43.9578V43.48C199.151 44.2286 198.323 44.6108 197.351 44.6108C195.328 44.6108 193.768 42.9385 193.768 40.7883C193.768 38.3992 195.583 37.0135 197.351 37.0135C198.307 37.0135 199.119 37.3958 199.804 38.1921V34.9429C199.804 34.5925 200.091 34.2899 200.441 34.2899C200.807 34.2899 201.094 34.5925 201.094 34.9429V43.9578C201.094 44.3082 200.807 44.6108 200.441 44.6108ZM197.542 43.4004C198.482 43.4004 199.374 42.7951 199.804 41.8873V39.7211C199.39 38.8133 198.498 38.224 197.542 38.224C196.077 38.224 195.058 39.2593 195.058 40.7883C195.058 42.381 196.029 43.4004 197.542 43.4004Z" fill="white"/>
<path d="M185.752 44.611C184.032 44.611 182.869 43.4323 182.869 41.7122V37.6826C182.869 37.3322 183.156 37.0295 183.522 37.0295C183.873 37.0295 184.159 37.3322 184.159 37.6826V41.314C184.159 42.62 184.86 43.4005 186.055 43.4005C187.281 43.4005 188.125 42.5086 188.125 41.2344V37.6826C188.125 37.3322 188.412 37.0295 188.778 37.0295C189.129 37.0295 189.415 37.3322 189.415 37.6826V43.9579C189.415 44.3083 189.129 44.611 188.778 44.611C188.412 44.611 188.125 44.3083 188.125 43.9579V43.3686C187.552 44.1969 186.771 44.611 185.752 44.611Z" fill="white"/>
<path d="M177.722 44.611C175.62 44.611 173.947 42.9545 173.947 40.8203C173.947 38.7019 175.62 37.0295 177.754 37.0295C179.872 37.0295 181.545 38.7178 181.545 40.8203C181.545 42.9704 179.872 44.611 177.722 44.611ZM177.754 43.4005C179.251 43.4005 180.254 42.3811 180.254 40.8203C180.254 39.3072 179.203 38.24 177.722 38.24C176.241 38.24 175.237 39.2912 175.237 40.8203C175.237 42.3652 176.257 43.4005 177.754 43.4005Z" fill="white"/>
<path d="M169.134 47.0001C168.783 47.0001 168.497 46.7134 168.497 46.347C168.497 46.2993 168.497 46.2037 168.528 46.1241L169.373 43.8465L167.079 37.9055C167.047 37.8418 167.031 37.7622 167.031 37.6666C167.031 37.3162 167.334 37.0295 167.684 37.0295C167.955 37.0295 168.178 37.2047 168.274 37.4437L170.073 42.2378L171.873 37.4437C171.969 37.2047 172.192 37.0295 172.462 37.0295C172.813 37.0295 173.1 37.3162 173.1 37.6666C173.1 37.7622 173.1 37.8418 173.068 37.9055L169.739 46.586C169.643 46.8249 169.404 47.0001 169.134 47.0001Z" fill="white"/>
<path d="M160.32 44.611C159.46 44.611 158.568 44.3243 157.931 43.9102C157.772 43.7987 157.66 43.6235 157.66 43.4164C157.66 42.9227 158.234 42.7156 158.52 42.9067C159.364 43.3686 159.778 43.4005 160.32 43.4005C161.228 43.4005 161.769 43.0342 161.769 42.4448C161.769 42.0626 161.483 41.76 160.893 41.5529L159.571 41.1069C158.313 40.6769 157.756 40.0557 157.756 39.0842C157.756 37.8737 158.823 37.0295 160.352 37.0295C161.116 37.0295 161.961 37.3162 162.582 37.6985C162.757 37.81 162.852 37.9852 162.852 38.1922C162.852 38.6223 162.407 38.9249 161.992 38.7019C161.18 38.2719 160.83 38.24 160.352 38.24C159.54 38.24 159.046 38.5745 159.046 39.0842C159.046 39.4346 159.269 39.6257 160.113 39.9283L161.435 40.4061C162.486 40.7884 163.06 41.4892 163.06 42.4448C163.06 43.7031 161.913 44.611 160.32 44.611Z" fill="white"/>
<path d="M154.054 44.611C153.194 44.611 152.302 44.3243 151.665 43.9102C151.506 43.7987 151.395 43.6235 151.395 43.4164C151.395 42.9227 151.968 42.7156 152.255 42.9067C153.099 43.3686 153.513 43.4005 154.054 43.4005C154.962 43.4005 155.504 43.0342 155.504 42.4448C155.504 42.0626 155.217 41.76 154.628 41.5529L153.306 41.1069C152.048 40.6769 151.49 40.0557 151.49 39.0842C151.49 37.8737 152.557 37.0295 154.086 37.0295C154.851 37.0295 155.695 37.3162 156.316 37.6985C156.491 37.81 156.587 37.9852 156.587 38.1922C156.587 38.6223 156.141 38.9249 155.727 38.7019C154.914 38.2719 154.564 38.24 154.086 38.24C153.274 38.24 152.78 38.5745 152.78 39.0842C152.78 39.4346 153.003 39.6257 153.847 39.9283L155.169 40.4061C156.221 40.7884 156.794 41.4892 156.794 42.4448C156.794 43.7031 155.647 44.611 154.054 44.611Z" fill="white"/>
<path d="M147.432 44.611C145.218 44.611 143.514 43.0023 143.514 40.884C143.514 38.9727 144.804 37.0295 147.05 37.0295C149.12 37.0295 150.378 38.6382 150.458 40.2787C150.458 40.7725 150.347 41.0751 149.821 41.0751H144.804C144.883 42.5404 145.871 43.4005 147.432 43.4005C148.069 43.4005 148.626 43.289 149.168 43.066C149.55 42.9227 149.948 43.1775 149.948 43.5757C149.948 43.7827 149.837 43.9739 149.662 44.0694C149.009 44.4358 148.26 44.611 147.432 44.611ZM144.867 40.0398H149.168C149.088 39.0205 148.18 38.24 147.034 38.24C145.903 38.24 144.995 39.0045 144.867 40.0398Z" fill="white"/>
<path d="M136.37 44.611C136.019 44.611 135.732 44.3083 135.732 43.9579V37.6826C135.732 37.3322 136.019 37.0295 136.37 37.0295C136.736 37.0295 137.023 37.3322 137.023 37.6826V38.2719C137.596 37.4437 138.376 37.0295 139.396 37.0295C141.116 37.0295 142.279 38.2082 142.279 39.9283V43.9579C142.279 44.3083 141.992 44.611 141.626 44.611C141.275 44.611 140.988 44.3083 140.988 43.9579V40.3265C140.988 39.0205 140.288 38.24 139.093 38.24C137.867 38.24 137.023 39.132 137.023 40.4061V43.9579C137.023 44.3083 136.736 44.611 136.37 44.611Z" fill="white"/>
<path d="M133.465 36.1056C132.955 36.1056 132.557 35.7075 132.557 35.1978C132.557 34.6881 132.955 34.2899 133.465 34.2899C133.958 34.2899 134.356 34.6881 134.356 35.1978C134.356 35.7075 133.958 36.1056 133.465 36.1056ZM133.449 44.6108C133.098 44.6108 132.811 44.3082 132.811 43.9578V37.6824C132.811 37.332 133.098 37.0294 133.465 37.0294C133.815 37.0294 134.102 37.332 134.102 37.6824V43.9578C134.102 44.3082 133.815 44.6108 133.449 44.6108Z" fill="white"/>
<path d="M130.546 44.6108C130.179 44.6108 129.893 44.3082 129.893 43.9578V34.9429C129.893 34.5925 130.179 34.2899 130.546 34.2899C130.896 34.2899 131.183 34.5925 131.183 34.9429V43.9578C131.183 44.3082 130.896 44.6108 130.546 44.6108Z" fill="white"/>
<path d="M122.336 44.611C121.986 44.611 121.699 44.3083 121.699 43.9579V37.6826C121.699 37.3322 121.986 37.0295 122.336 37.0295C122.703 37.0295 122.989 37.3322 122.989 37.6826V38.2719C123.563 37.4437 124.343 37.0295 125.363 37.0295C127.083 37.0295 128.245 38.2082 128.245 39.9283V43.9579C128.245 44.3083 127.959 44.611 127.592 44.611C127.242 44.611 126.955 44.3083 126.955 43.9579V40.3265C126.955 39.0205 126.254 38.24 125.06 38.24C123.833 38.24 122.989 39.132 122.989 40.4061V43.9579C122.989 44.3083 122.703 44.611 122.336 44.611Z" fill="white"/>
<path d="M116.613 44.6269C114.861 44.6269 113.635 43.6235 113.635 42.2059C113.635 40.8521 114.893 39.8646 116.613 39.8646C117.521 39.8646 118.286 40.1354 118.763 40.6291V39.8009C118.763 38.8134 118.063 38.24 116.788 38.24C116.231 38.24 115.721 38.3674 115.228 38.5586C114.893 38.686 114.431 38.4471 114.431 38.017C114.431 37.7781 114.574 37.587 114.797 37.4914C115.403 37.2366 116.183 37.0295 117.027 37.0295C118.859 37.0295 120.053 38.0648 120.053 39.7053V43.9579C120.053 44.3243 119.767 44.611 119.416 44.611C119.066 44.611 118.763 44.3561 118.763 43.8942V43.8146C118.397 44.2128 117.553 44.6269 116.613 44.6269ZM116.788 43.4642C117.76 43.4642 118.795 43.0819 118.795 42.2059C118.795 41.3459 117.744 40.9477 116.788 40.9477C115.833 40.9477 114.925 41.3459 114.925 42.2059C114.925 43.0819 115.833 43.4642 116.788 43.4642Z" fill="white"/>
<path d="M109.75 44.611C107.536 44.611 105.832 43.0023 105.832 40.884C105.832 38.9727 107.122 37.0295 109.368 37.0295C111.438 37.0295 112.697 38.6382 112.776 40.2787C112.776 40.7725 112.665 41.0751 112.139 41.0751H107.122C107.202 42.5404 108.189 43.4005 109.75 43.4005C110.387 43.4005 110.945 43.289 111.486 43.066C111.869 42.9227 112.267 43.1775 112.267 43.5757C112.267 43.7827 112.155 43.9739 111.98 44.0694C111.327 44.4358 110.578 44.611 109.75 44.611ZM107.186 40.0398H111.486C111.407 39.0205 110.499 38.24 109.352 38.24C108.221 38.24 107.313 39.0045 107.186 40.0398Z" fill="white"/>
<path d="M103.917 44.6108C103.55 44.6108 103.264 44.3082 103.264 43.9578V34.9429C103.264 34.5925 103.55 34.2899 103.917 34.2899C104.267 34.2899 104.554 34.5925 104.554 34.9429V43.9578C104.554 44.3082 104.267 44.6108 103.917 44.6108Z" fill="white"/>
<path d="M99.8763 44.611C97.7739 44.611 96.1016 42.9545 96.1016 40.8203C96.1016 38.686 97.7739 37.0295 99.8763 37.0295C100.513 37.0295 101.135 37.157 101.708 37.4277C101.899 37.5233 102.042 37.7144 102.042 37.9533C102.042 38.3993 101.581 38.6541 101.214 38.4949C100.848 38.3197 100.418 38.24 99.9082 38.24C98.411 38.24 97.3917 39.2753 97.3917 40.8203C97.3917 42.3652 98.411 43.4005 99.9082 43.4005C100.418 43.4005 100.848 43.3208 101.214 43.1456C101.581 42.9864 102.042 43.2412 102.042 43.6872C102.042 43.9261 101.899 44.1172 101.708 44.2128C101.135 44.4835 100.513 44.611 99.8763 44.611Z" fill="white"/>
<path d="M89.1095 44.611C86.8956 44.611 85.1914 43.0023 85.1914 40.884C85.1914 38.9727 86.4815 37.0295 88.7273 37.0295C90.7978 37.0295 92.0561 38.6382 92.1357 40.2787C92.1357 40.7725 92.0242 41.0751 91.4986 41.0751H86.4815C86.5612 42.5404 87.5487 43.4005 89.1095 43.4005C89.7466 43.4005 90.3041 43.289 90.8456 43.066C91.2279 42.9227 91.6261 43.1775 91.6261 43.5757C91.6261 43.7827 91.5146 43.9739 91.3394 44.0694C90.6863 44.4358 89.9378 44.611 89.1095 44.611ZM86.5452 40.0398H90.8456C90.766 39.0205 89.8581 38.24 88.7114 38.24C87.5805 38.24 86.6727 39.0045 86.5452 40.0398Z" fill="white"/>
<path d="M78.0495 44.6108C77.6832 44.6108 77.3965 44.3082 77.3965 43.9578V34.9429C77.3965 34.5925 77.6832 34.2899 78.0495 34.2899C78.3999 34.2899 78.6866 34.5925 78.6866 34.9429V38.2877C79.26 37.4595 80.0564 37.0294 81.0757 37.0294C82.8118 37.0294 83.9745 38.208 83.9745 39.9441V43.9578C83.9745 44.3082 83.6878 44.6108 83.3215 44.6108C82.9711 44.6108 82.6844 44.3082 82.6844 43.9578V40.3264C82.6844 39.0044 81.9676 38.2399 80.7731 38.2399C79.5467 38.2399 78.6866 39.1159 78.6866 40.406V43.9578C78.6866 44.3082 78.3999 44.6108 78.0495 44.6108Z" fill="white"/>
<path d="M72.8056 44.6109C72.4233 44.6109 72.1048 44.2923 72.1048 43.9101V35.7712H69.7953C69.4608 35.7712 69.1582 35.4845 69.1582 35.1341C69.1582 34.7996 69.4608 34.5129 69.7953 34.5129H75.7999C76.1344 34.5129 76.437 34.7996 76.437 35.1341C76.437 35.4845 76.1344 35.7712 75.7999 35.7712H73.5064V43.9101C73.5064 44.2923 73.1878 44.6109 72.8056 44.6109Z" fill="white"/>
<path fill-rule="evenodd" clip-rule="evenodd" d="M27.28 25.8584L33.2894 32.0802C32.0147 35.53 28.233 42.7452 23.3042 44.0078H23.2435C23.466 43.8459 23.9476 43.413 24.0933 42.9759C24.0933 42.9516 24.0528 42.9658 24.0326 42.9759C23.7594 43.1884 23.0978 43.674 22.6365 43.9168C22.6061 43.9168 20.5423 43.4008 18.4785 42.1261C18.5028 42.1018 18.5493 42.0958 18.5695 42.0958C18.8123 41.9238 19.389 41.4463 19.7532 40.9121L19.7835 40.8817C19.4598 41.0436 18.5149 41.3734 17.3252 41.3977C17.3009 41.3977 17.2544 41.3775 17.2341 41.3673C15.5649 40.2545 12.02 36.9787 11.1944 32.7782H11.2551C11.6396 33.2537 12.9547 34.1683 15.14 34.0226C15.1642 33.9983 15.1703 33.972 15.1703 33.9619C14.0372 33.8911 11.5708 32.7661 10.7695 28.8327H10.8302C13.3088 30.4312 20.0385 32.1045 27.1283 26.0101L27.189 25.9494L27.28 25.8584ZM16.1426 31.0968C18.176 31.4206 22.7468 31.376 24.762 28.6081L24.7317 28.5778C23.7099 29.4984 20.5616 31.2911 16.1426 31.0968Z" fill="white"/>
<path d="M34.9882 15.3754C30.7998 12.1988 19.6778 7.73194 10.1314 16.8323C-1.94802 28.3471 5.54848 40.6572 9.85821 45.1793C14.1651 49.6985 24.6551 54.0055 34.7555 46.9235C34.7622 46.9187 34.7689 46.914 34.7757 46.9093C34.769 46.914 34.7623 46.9188 34.7555 46.9235C34.524 47.0885 34.3697 47.285 34.3205 47.3646C31.3259 50.005 22.9331 54.3208 13.3181 50.4603C3.70321 46.5997 0.672232 36.9949 0.358613 32.6751C-0.0764156 28.6891 1.26909 19.2846 10.1314 13.5544C18.9936 7.82432 27.9065 10.6004 31.2551 12.7046L33.6528 14.2828L34.9882 15.3754Z" fill="white"/>
<path d="M13.5619 15.1448C9.74488 17.981 2.97257 26.3442 8.1342 37.1021C14.5862 50.5494 27.6889 47.0927 32.7062 44.4905C37.72 41.8899 44.108 33.8656 40.4978 23.3066C40.4953 23.2996 40.4929 23.2926 40.4906 23.2855C40.493 23.2925 40.4954 23.2996 40.4978 23.3066C40.5829 23.5494 40.7148 23.733 40.7716 23.7958C42.312 27.0627 43.948 35.4408 38.1687 42.8177C32.3894 50.1945 23.2764 50.404 19.4423 49.5866C15.8678 48.9589 8.03208 45.4178 5.28495 36.2752C2.53783 27.1326 7.62614 20.0907 10.2993 17.7132L12.2755 16.029L13.5619 15.1448Z" fill="white"/>
<path d="M22.0287 0.716288C16.1044 0.400646 11.7299 3.59956 10.2832 5.23847C10.696 4.41295 12.3167 3.21512 13.0754 2.7194C13.0957 2.70928 13.1422 2.68298 13.1665 2.65869C15.8373 0.740562 19.4388 0.119396 20.9058 0.0485792C24.5883 -0.305506 32.8941 1.11691 36.6575 9.63924C40.4209 18.1616 36.2427 25.2291 33.6832 27.6976C33.663 27.7077 33.6043 27.7401 33.5315 27.7887C33.1672 26.9389 32.2669 26.2408 31.8622 25.998L31.9532 25.9069C36.5968 21.5972 37.0217 13.3723 35.0186 9.63924C33.0155 5.90617 29.4342 1.11084 22.0287 0.716288Z" fill="white"/>
<path fill-rule="evenodd" clip-rule="evenodd" d="M27.6143 25.6337L33.3505 31.6127C33.6945 30.5707 33.9454 28.1407 32.1972 26.7567L32.1365 26.696C31.4688 26.0182 29.6296 24.8446 27.6143 25.573L27.584 25.6034L27.6143 25.6337ZM33.2251 30.5929C33.3651 29.7923 33.3978 28.2487 32.3175 27.4367L32.3053 27.4485C32.3919 27.6356 32.486 27.7923 32.58 27.9488C32.8918 28.4678 33.2018 28.9839 33.2251 30.5929Z" fill="white"/>
</svg>
