<svg width="68" height="60" viewBox="0 0 68 60" fill="none" xmlns="http://www.w3.org/2000/svg">
<path d="M0 55C0 52.2386 2.23858 50 5 50H63C65.7614 50 68 52.2386 68 55C68 57.7614 65.7614 60 63 60H5C2.23858 60 0 57.7614 0 55Z" fill="white"/>
<path d="M0 30C0 27.2386 2.23858 25 5 25H63C65.7614 25 68 27.2386 68 30C68 32.7614 65.7614 35 63 35H5C2.23858 35 0 32.7614 0 30Z" fill="white"/>
<path d="M0 5C0 2.23858 2.23858 0 5 0H63C65.7614 0 68 2.23858 68 5C68 7.76142 65.7614 10 63 10H5C2.23858 10 0 7.76142 0 5Z" fill="white"/>
</svg>
